<mxfile host="app.diagrams.net" modified="2023-12-01T08:35:13.758Z" agent="Mozilla/5.0 (X11; Linux x86_64) AppleWebKit/537.36 (KHTML, like Gecko) Chrome/118.0.0.0 Safari/537.36" etag="d4KC1yJd640gkyhVxo8n" version="22.1.5" type="gitlab" pages="4">
  <diagram name="Main Flow" id="5hEIb1a4UCWueppqQS7Q">
    <mxGraphModel dx="1362" dy="1871" grid="1" gridSize="10" guides="1" tooltips="1" connect="1" arrows="1" fold="1" page="1" pageScale="1" pageWidth="850" pageHeight="1100" math="0" shadow="0">
      <root>
        <mxCell id="0" />
        <mxCell id="1" parent="0" />
        <mxCell id="UFaaTKaplKjj85b-ZlUV-1" value="" style="rounded=1;whiteSpace=wrap;html=1;fillColor=none;dashed=1;strokeColor=default;strokeWidth=1;" parent="1" vertex="1">
          <mxGeometry x="240" y="-820" width="440" height="320" as="geometry" />
        </mxCell>
        <mxCell id="jUVeeUu9CYXTUX48mqY--1" value="" style="verticalLabelPosition=middle;verticalAlign=middle;html=1;shape=trapezoid;perimeter=trapezoidPerimeter;whiteSpace=wrap;size=0.23;arcSize=10;flipV=1;labelPosition=center;align=center;fillColor=none;" parent="1" vertex="1">
          <mxGeometry x="300" y="-720" width="310" height="210" as="geometry" />
        </mxCell>
        <mxCell id="ojccp1RaXKusOlA6AM0y-71" style="edgeStyle=orthogonalEdgeStyle;rounded=0;orthogonalLoop=1;jettySize=auto;html=1;entryX=0;entryY=0.5;entryDx=0;entryDy=0;entryPerimeter=0;" parent="1" source="ojccp1RaXKusOlA6AM0y-52" target="ojccp1RaXKusOlA6AM0y-13" edge="1">
          <mxGeometry relative="1" as="geometry">
            <mxPoint x="725" y="-30" as="targetPoint" />
            <Array as="points">
              <mxPoint x="725" y="-30" />
              <mxPoint x="20" y="-30" />
              <mxPoint x="20" y="-600" />
              <mxPoint x="40" y="-600" />
            </Array>
          </mxGeometry>
        </mxCell>
        <mxCell id="ojccp1RaXKusOlA6AM0y-52" value="&lt;b&gt;zone n&lt;/b&gt;" style="rounded=1;whiteSpace=wrap;html=1;absoluteArcSize=1;arcSize=14;strokeWidth=1;labelBorderColor=none;fontColor=default;fillColor=none;dashed=1;verticalAlign=bottom;" parent="1" vertex="1">
          <mxGeometry x="640" y="-470" width="170" height="360" as="geometry" />
        </mxCell>
        <mxCell id="ojccp1RaXKusOlA6AM0y-70" style="edgeStyle=orthogonalEdgeStyle;rounded=0;orthogonalLoop=1;jettySize=auto;html=1;entryX=0;entryY=0.5;entryDx=0;entryDy=0;entryPerimeter=0;" parent="1" source="ojccp1RaXKusOlA6AM0y-51" target="ojccp1RaXKusOlA6AM0y-13" edge="1">
          <mxGeometry relative="1" as="geometry">
            <mxPoint x="485" y="-30" as="targetPoint" />
            <Array as="points">
              <mxPoint x="485" y="-30" />
              <mxPoint x="20" y="-30" />
              <mxPoint x="20" y="-610" />
              <mxPoint x="40" y="-610" />
            </Array>
          </mxGeometry>
        </mxCell>
        <mxCell id="ojccp1RaXKusOlA6AM0y-51" value="&lt;b&gt;zone 2&lt;/b&gt;" style="rounded=1;whiteSpace=wrap;html=1;absoluteArcSize=1;arcSize=14;strokeWidth=1;labelBorderColor=none;fontColor=default;fillColor=none;dashed=1;verticalAlign=bottom;" parent="1" vertex="1">
          <mxGeometry x="400" y="-470" width="170" height="360" as="geometry" />
        </mxCell>
        <mxCell id="ojccp1RaXKusOlA6AM0y-69" style="edgeStyle=orthogonalEdgeStyle;rounded=0;orthogonalLoop=1;jettySize=auto;html=1;entryX=0;entryY=0.5;entryDx=0;entryDy=0;entryPerimeter=0;" parent="1" source="ojccp1RaXKusOlA6AM0y-50" target="ojccp1RaXKusOlA6AM0y-13" edge="1">
          <mxGeometry relative="1" as="geometry">
            <mxPoint x="305" y="-20" as="targetPoint" />
            <Array as="points">
              <mxPoint x="305" y="-30" />
              <mxPoint x="20" y="-30" />
              <mxPoint x="20" y="-605" />
            </Array>
          </mxGeometry>
        </mxCell>
        <mxCell id="ojccp1RaXKusOlA6AM0y-50" value="&lt;b&gt;zone 1&lt;/b&gt;" style="rounded=1;whiteSpace=wrap;html=1;absoluteArcSize=1;arcSize=14;strokeWidth=1;labelBorderColor=none;fontColor=default;fillColor=none;dashed=1;verticalAlign=bottom;" parent="1" vertex="1">
          <mxGeometry x="220" y="-470" width="170" height="360" as="geometry" />
        </mxCell>
        <mxCell id="ojccp1RaXKusOlA6AM0y-49" value="&lt;b&gt;zone 0&lt;/b&gt;" style="rounded=1;whiteSpace=wrap;html=1;absoluteArcSize=1;arcSize=14;strokeWidth=1;labelBorderColor=none;fontColor=default;fillColor=none;dashed=1;verticalAlign=bottom;" parent="1" vertex="1">
          <mxGeometry x="40" y="-470" width="170" height="360" as="geometry" />
        </mxCell>
        <mxCell id="ojccp1RaXKusOlA6AM0y-17" value="" style="edgeStyle=orthogonalEdgeStyle;rounded=0;orthogonalLoop=1;jettySize=auto;html=1;" parent="1" source="ojccp1RaXKusOlA6AM0y-5" target="ojccp1RaXKusOlA6AM0y-16" edge="1">
          <mxGeometry relative="1" as="geometry" />
        </mxCell>
        <mxCell id="ojccp1RaXKusOlA6AM0y-5" value="Video&amp;nbsp;" style="shape=parallelogram;html=1;strokeWidth=2;perimeter=parallelogramPerimeter;whiteSpace=wrap;rounded=1;arcSize=12;size=0.23;" parent="1" vertex="1">
          <mxGeometry x="380" y="-700" width="160" height="60" as="geometry" />
        </mxCell>
        <mxCell id="ojccp1RaXKusOlA6AM0y-7" value="" style="edgeStyle=orthogonalEdgeStyle;rounded=0;orthogonalLoop=1;jettySize=auto;html=1;" parent="1" source="ojccp1RaXKusOlA6AM0y-6" target="ojccp1RaXKusOlA6AM0y-5" edge="1">
          <mxGeometry relative="1" as="geometry">
            <mxPoint x="460" y="-750" as="targetPoint" />
            <Array as="points">
              <mxPoint x="460" y="-730" />
              <mxPoint x="460" y="-730" />
            </Array>
          </mxGeometry>
        </mxCell>
        <mxCell id="ojccp1RaXKusOlA6AM0y-6" value="Start Kafka Client" style="strokeWidth=2;html=1;shape=mxgraph.flowchart.start_1;whiteSpace=wrap;" parent="1" vertex="1">
          <mxGeometry x="385" y="-790" width="150" height="60" as="geometry" />
        </mxCell>
        <mxCell id="YEOD-zTDMhKhUNk2YeDw-4" style="edgeStyle=orthogonalEdgeStyle;rounded=0;orthogonalLoop=1;jettySize=auto;html=1;exitX=0;exitY=0.5;exitDx=0;exitDy=0;exitPerimeter=0;" edge="1" parent="1" source="ojccp1RaXKusOlA6AM0y-13">
          <mxGeometry relative="1" as="geometry">
            <mxPoint x="40" y="-610" as="targetPoint" />
            <Array as="points">
              <mxPoint x="40" y="-600" />
              <mxPoint x="20" y="-600" />
              <mxPoint x="20" y="-610" />
            </Array>
          </mxGeometry>
        </mxCell>
        <mxCell id="ojccp1RaXKusOlA6AM0y-13" value="FSS Kafka Server" style="strokeWidth=2;html=1;shape=mxgraph.flowchart.database;whiteSpace=wrap;" parent="1" vertex="1">
          <mxGeometry x="40" y="-690" width="160" height="170" as="geometry" />
        </mxCell>
        <mxCell id="ojccp1RaXKusOlA6AM0y-15" value="" style="verticalLabelPosition=bottom;verticalAlign=top;html=1;strokeWidth=2;shape=mxgraph.arrows2.arrow;dy=0.6;dx=40;notch=0;align=center;fillColor=none;horizontal=1;" parent="1" vertex="1">
          <mxGeometry x="200" y="-640" width="120" height="70" as="geometry" />
        </mxCell>
        <mxCell id="ojccp1RaXKusOlA6AM0y-22" value="" style="edgeStyle=orthogonalEdgeStyle;rounded=0;orthogonalLoop=1;jettySize=auto;html=1;entryX=0.8;entryY=0.7;entryDx=0;entryDy=0;entryPerimeter=0;exitX=0.5;exitY=1;exitDx=0;exitDy=0;" parent="1" edge="1">
          <mxGeometry relative="1" as="geometry">
            <mxPoint x="460" y="-530" as="sourcePoint" />
            <mxPoint x="120" y="-420" as="targetPoint" />
            <Array as="points">
              <mxPoint x="460" y="-480" />
              <mxPoint x="120" y="-480" />
            </Array>
          </mxGeometry>
        </mxCell>
        <mxCell id="ojccp1RaXKusOlA6AM0y-25" value="" style="edgeStyle=orthogonalEdgeStyle;rounded=0;orthogonalLoop=1;jettySize=auto;html=1;entryX=0.5;entryY=0;entryDx=0;entryDy=0;exitX=0.5;exitY=1;exitDx=0;exitDy=0;" parent="1" source="ojccp1RaXKusOlA6AM0y-16" target="ojccp1RaXKusOlA6AM0y-23" edge="1">
          <mxGeometry relative="1" as="geometry">
            <mxPoint x="460" y="-460" as="targetPoint" />
            <Array as="points">
              <mxPoint x="460" y="-480" />
              <mxPoint x="305" y="-480" />
            </Array>
          </mxGeometry>
        </mxCell>
        <mxCell id="ojccp1RaXKusOlA6AM0y-30" style="edgeStyle=orthogonalEdgeStyle;rounded=0;orthogonalLoop=1;jettySize=auto;html=1;entryX=0.5;entryY=0;entryDx=0;entryDy=0;exitX=0.5;exitY=1;exitDx=0;exitDy=0;" parent="1" source="ojccp1RaXKusOlA6AM0y-16" target="ojccp1RaXKusOlA6AM0y-26" edge="1">
          <mxGeometry relative="1" as="geometry">
            <Array as="points">
              <mxPoint x="460" y="-480" />
              <mxPoint x="490" y="-480" />
            </Array>
          </mxGeometry>
        </mxCell>
        <mxCell id="ojccp1RaXKusOlA6AM0y-31" style="edgeStyle=orthogonalEdgeStyle;rounded=0;orthogonalLoop=1;jettySize=auto;html=1;exitX=0.5;exitY=1;exitDx=0;exitDy=0;" parent="1" source="ojccp1RaXKusOlA6AM0y-16" target="ojccp1RaXKusOlA6AM0y-27" edge="1">
          <mxGeometry relative="1" as="geometry">
            <Array as="points">
              <mxPoint x="460" y="-480" />
              <mxPoint x="735" y="-480" />
            </Array>
          </mxGeometry>
        </mxCell>
        <mxCell id="ojccp1RaXKusOlA6AM0y-16" value="Video Manager" style="rounded=1;whiteSpace=wrap;html=1;absoluteArcSize=1;arcSize=14;strokeWidth=2;" parent="1" vertex="1">
          <mxGeometry x="380" y="-600" width="160" height="60" as="geometry" />
        </mxCell>
        <mxCell id="ojccp1RaXKusOlA6AM0y-39" style="edgeStyle=orthogonalEdgeStyle;rounded=0;orthogonalLoop=1;jettySize=auto;html=1;entryX=0.5;entryY=0;entryDx=0;entryDy=0;" parent="1" source="ojccp1RaXKusOlA6AM0y-18" target="ojccp1RaXKusOlA6AM0y-34" edge="1">
          <mxGeometry relative="1" as="geometry" />
        </mxCell>
        <mxCell id="ojccp1RaXKusOlA6AM0y-18" value="People Counting Process" style="rounded=1;whiteSpace=wrap;html=1;absoluteArcSize=1;arcSize=14;strokeWidth=2;" parent="1" vertex="1">
          <mxGeometry x="60" y="-430" width="130" height="110" as="geometry" />
        </mxCell>
        <mxCell id="ojccp1RaXKusOlA6AM0y-40" style="edgeStyle=orthogonalEdgeStyle;rounded=0;orthogonalLoop=1;jettySize=auto;html=1;entryX=0.5;entryY=0;entryDx=0;entryDy=0;" parent="1" source="ojccp1RaXKusOlA6AM0y-23" target="ojccp1RaXKusOlA6AM0y-35" edge="1">
          <mxGeometry relative="1" as="geometry" />
        </mxCell>
        <mxCell id="ojccp1RaXKusOlA6AM0y-23" value="People Counting Process" style="rounded=1;whiteSpace=wrap;html=1;absoluteArcSize=1;arcSize=14;strokeWidth=2;" parent="1" vertex="1">
          <mxGeometry x="240" y="-430" width="130" height="110" as="geometry" />
        </mxCell>
        <mxCell id="ojccp1RaXKusOlA6AM0y-41" style="edgeStyle=orthogonalEdgeStyle;rounded=0;orthogonalLoop=1;jettySize=auto;html=1;" parent="1" source="ojccp1RaXKusOlA6AM0y-26" target="ojccp1RaXKusOlA6AM0y-36" edge="1">
          <mxGeometry relative="1" as="geometry" />
        </mxCell>
        <mxCell id="ojccp1RaXKusOlA6AM0y-26" value="People Counting Process" style="rounded=1;whiteSpace=wrap;html=1;absoluteArcSize=1;arcSize=14;strokeWidth=2;" parent="1" vertex="1">
          <mxGeometry x="425" y="-430" width="130" height="110" as="geometry" />
        </mxCell>
        <mxCell id="ojccp1RaXKusOlA6AM0y-42" style="edgeStyle=orthogonalEdgeStyle;rounded=0;orthogonalLoop=1;jettySize=auto;html=1;entryX=0.5;entryY=0;entryDx=0;entryDy=0;" parent="1" source="ojccp1RaXKusOlA6AM0y-27" target="ojccp1RaXKusOlA6AM0y-37" edge="1">
          <mxGeometry relative="1" as="geometry" />
        </mxCell>
        <mxCell id="ojccp1RaXKusOlA6AM0y-27" value="People Counting Process" style="rounded=1;whiteSpace=wrap;html=1;absoluteArcSize=1;arcSize=14;strokeWidth=2;" parent="1" vertex="1">
          <mxGeometry x="670" y="-430" width="130" height="110" as="geometry" />
        </mxCell>
        <mxCell id="ojccp1RaXKusOlA6AM0y-34" value="Kafka Send Result&amp;nbsp; Message" style="rounded=1;whiteSpace=wrap;html=1;absoluteArcSize=1;arcSize=14;strokeWidth=2;" parent="1" vertex="1">
          <mxGeometry x="60" y="-250" width="130" height="110" as="geometry" />
        </mxCell>
        <mxCell id="ojccp1RaXKusOlA6AM0y-35" value="Kafka Send Result&amp;nbsp; Message" style="rounded=1;whiteSpace=wrap;html=1;absoluteArcSize=1;arcSize=14;strokeWidth=2;" parent="1" vertex="1">
          <mxGeometry x="240" y="-250" width="130" height="110" as="geometry" />
        </mxCell>
        <mxCell id="ojccp1RaXKusOlA6AM0y-36" value="Kafka Send Result&amp;nbsp; Message" style="rounded=1;whiteSpace=wrap;html=1;absoluteArcSize=1;arcSize=14;strokeWidth=2;" parent="1" vertex="1">
          <mxGeometry x="425" y="-250" width="130" height="110" as="geometry" />
        </mxCell>
        <mxCell id="ojccp1RaXKusOlA6AM0y-37" value="Kafka Send Result&amp;nbsp; Message" style="rounded=1;whiteSpace=wrap;html=1;absoluteArcSize=1;arcSize=14;strokeWidth=2;" parent="1" vertex="1">
          <mxGeometry x="670" y="-250" width="130" height="110" as="geometry" />
        </mxCell>
        <mxCell id="ojccp1RaXKusOlA6AM0y-43" value="counting result" style="text;html=1;strokeColor=none;fillColor=none;align=center;verticalAlign=middle;whiteSpace=wrap;rounded=0;" parent="1" vertex="1">
          <mxGeometry x="60" y="-300" width="60" height="30" as="geometry" />
        </mxCell>
        <mxCell id="ojccp1RaXKusOlA6AM0y-44" value="counting result" style="text;html=1;strokeColor=none;fillColor=none;align=center;verticalAlign=middle;whiteSpace=wrap;rounded=0;" parent="1" vertex="1">
          <mxGeometry x="240" y="-300" width="60" height="30" as="geometry" />
        </mxCell>
        <mxCell id="ojccp1RaXKusOlA6AM0y-45" value="counting result" style="text;html=1;strokeColor=none;fillColor=none;align=center;verticalAlign=middle;whiteSpace=wrap;rounded=0;" parent="1" vertex="1">
          <mxGeometry x="430" y="-300" width="60" height="30" as="geometry" />
        </mxCell>
        <mxCell id="ojccp1RaXKusOlA6AM0y-46" value="counting result" style="text;html=1;strokeColor=none;fillColor=none;align=center;verticalAlign=middle;whiteSpace=wrap;rounded=0;" parent="1" vertex="1">
          <mxGeometry x="670" y="-300" width="60" height="30" as="geometry" />
        </mxCell>
        <mxCell id="ojccp1RaXKusOlA6AM0y-54" value="" style="verticalLabelPosition=bottom;verticalAlign=top;html=1;shape=mxgraph.flowchart.parallel_mode;pointerEvents=1" parent="1" vertex="1">
          <mxGeometry x="570" y="-310" width="70" height="40" as="geometry" />
        </mxCell>
        <mxCell id="ojccp1RaXKusOlA6AM0y-66" value="" style="endArrow=classic;html=1;rounded=0;entryX=0;entryY=0.5;entryDx=0;entryDy=0;entryPerimeter=0;" parent="1" target="ojccp1RaXKusOlA6AM0y-13" edge="1">
          <mxGeometry width="50" height="50" relative="1" as="geometry">
            <mxPoint x="120" y="-110" as="sourcePoint" />
            <mxPoint x="20" y="-290" as="targetPoint" />
            <Array as="points">
              <mxPoint x="120" y="-30" />
              <mxPoint x="20" y="-30" />
              <mxPoint x="20" y="-605" />
            </Array>
          </mxGeometry>
        </mxCell>
        <mxCell id="ojccp1RaXKusOlA6AM0y-72" value="Message output" style="text;html=1;strokeColor=none;fillColor=none;align=center;verticalAlign=middle;whiteSpace=wrap;rounded=0;" parent="1" vertex="1">
          <mxGeometry x="340" y="-30" width="140" height="30" as="geometry" />
        </mxCell>
        <mxCell id="RNmh61nQ9ovzE0x0kWN5-1" value="Message Input" style="text;html=1;strokeColor=none;fillColor=none;align=center;verticalAlign=middle;whiteSpace=wrap;rounded=0;" parent="1" vertex="1">
          <mxGeometry x="200" y="-620" width="90" height="30" as="geometry" />
        </mxCell>
        <mxCell id="RNmh61nQ9ovzE0x0kWN5-3" value="Redis" style="text;html=1;strokeColor=none;fillColor=none;align=center;verticalAlign=middle;whiteSpace=wrap;rounded=0;" parent="1" vertex="1">
          <mxGeometry x="410" y="-540" width="60" height="30" as="geometry" />
        </mxCell>
        <mxCell id="UFaaTKaplKjj85b-ZlUV-2" value="&lt;b&gt;Consumer Kafka Video&lt;/b&gt;" style="text;html=1;strokeColor=none;fillColor=none;align=center;verticalAlign=middle;whiteSpace=wrap;rounded=0;" parent="1" vertex="1">
          <mxGeometry x="320" y="-820" width="300" height="20" as="geometry" />
        </mxCell>
        <mxCell id="YEOD-zTDMhKhUNk2YeDw-1" value="&lt;i style=&quot;font-size: 13px; font-weight: bold;&quot;&gt;CONFIG&lt;br&gt;&lt;/i&gt;- Kafka:&lt;br&gt;&lt;span style=&quot;white-space: pre;&quot;&gt;&#x9;&lt;/span&gt;+ broker (ip)&lt;br&gt;&lt;span style=&quot;white-space: pre;&quot;&gt;&#x9;&lt;/span&gt;+ port&lt;br&gt;&lt;span style=&quot;white-space: pre;&quot;&gt;&#x9;&lt;/span&gt;+ group_id&lt;br&gt;&lt;span style=&quot;white-space: pre;&quot;&gt;&#x9;&lt;/span&gt;+ message_topic&lt;br&gt;&lt;span style=&quot;white-space: pre;&quot;&gt;&#x9;&lt;/span&gt;+ result_topic&lt;br&gt;- Redis:&lt;br&gt;&lt;span style=&quot;white-space: pre;&quot;&gt;&#x9;&lt;/span&gt;+ broker (ip)&lt;br&gt;&lt;span style=&quot;white-space: pre;&quot;&gt;&#x9;&lt;/span&gt;+ port&lt;br&gt;&lt;span style=&quot;white-space: pre;&quot;&gt;&#x9;&lt;/span&gt;+ message_topic&lt;br&gt;&lt;span style=&quot;white-space: pre;&quot;&gt;&#x9;&lt;/span&gt;+ result_topic&lt;br&gt;&lt;span style=&quot;white-space: pre;&quot;&gt;&#x9;&lt;/span&gt;+ &lt;strike&gt;error_topic&lt;/strike&gt;&lt;br&gt;- YOLOv8 Detection&lt;br&gt;&lt;span style=&quot;white-space: pre;&quot;&gt;&#x9;&lt;/span&gt;+ model_path&lt;br&gt;&lt;span style=&quot;white-space: pre;&quot;&gt;&#x9;&lt;/span&gt;+ batch_size&lt;br&gt;&lt;span style=&quot;white-space: pre;&quot;&gt;&#x9;&lt;/span&gt;+ devices&lt;br&gt;&lt;span style=&quot;white-space: pre;&quot;&gt;&#x9;&lt;/span&gt;+ save video&lt;br&gt;&lt;span style=&quot;white-space: pre;&quot;&gt;&#x9;&lt;/span&gt;+ zone&lt;br&gt;- Database&lt;br&gt;&lt;span style=&quot;white-space: pre;&quot;&gt;&#x9;&lt;/span&gt;+ DB names&lt;br&gt;&lt;span style=&quot;white-space: pre;&quot;&gt;&#x9;&lt;/span&gt;+ DB url&lt;br&gt;&lt;span style=&quot;white-space: pre;&quot;&gt;&#x9;&lt;/span&gt;&lt;span style=&quot;white-space: pre;&quot;&gt;&#x9;&lt;/span&gt;" style="strokeWidth=2;html=1;shape=mxgraph.flowchart.document2;whiteSpace=wrap;size=0.25;align=left;horizontal=1;verticalAlign=top;fontSize=13;" vertex="1" parent="1">
          <mxGeometry x="10" y="-1090" width="220" height="380" as="geometry" />
        </mxCell>
        <mxCell id="YEOD-zTDMhKhUNk2YeDw-2" value="&lt;b&gt;API&lt;/b&gt;:&amp;nbsp;&lt;br&gt;- update cam: add update consume&lt;br&gt;&lt;b&gt;Program&lt;/b&gt;:&lt;br&gt;- keep message in processing in redis&lt;br&gt;- test create cuda stream and opencv stream&amp;nbsp;&lt;br&gt;- add config and log in cpp code&lt;br&gt;- Spit code function for controller in data class into CamDao, CounterDao and Person Dao&lt;br&gt;- Code database name and database url into parrams in DataClass and DataMongoClass&lt;br&gt;- Code change attribute line_config in CamClass -&amp;gt; config and add duration duration into dictionary config.&lt;br&gt;- Save detection results with bin file" style="shape=note;whiteSpace=wrap;html=1;backgroundOutline=1;darkOpacity=0.05;verticalAlign=top;align=left;" vertex="1" parent="1">
          <mxGeometry x="240" y="-1090" width="610" height="250" as="geometry" />
        </mxCell>
        <mxCell id="YEOD-zTDMhKhUNk2YeDw-3" style="edgeStyle=orthogonalEdgeStyle;rounded=0;orthogonalLoop=1;jettySize=auto;html=1;exitX=0;exitY=0.5;exitDx=0;exitDy=0;exitPerimeter=0;entryX=0;entryY=0.5;entryDx=0;entryDy=0;entryPerimeter=0;" edge="1" parent="1" source="ojccp1RaXKusOlA6AM0y-13" target="ojccp1RaXKusOlA6AM0y-13">
          <mxGeometry relative="1" as="geometry" />
        </mxCell>
      </root>
    </mxGraphModel>
  </diagram>
  <diagram id="aT3iJVQdpg2UHgiwBWrG" name="Consumer Kafka Video">
    <mxGraphModel dx="1362" dy="1871" grid="1" gridSize="10" guides="1" tooltips="1" connect="1" arrows="1" fold="1" page="1" pageScale="1" pageWidth="850" pageHeight="1100" math="0" shadow="0">
      <root>
        <mxCell id="0" />
        <mxCell id="1" parent="0" />
        <mxCell id="woYJ1ixEDE-KK4LjraKT-4" value="msg = message&lt;br&gt;T = True&lt;br&gt;F = False&lt;br&gt;" style="strokeWidth=2;html=1;shape=mxgraph.flowchart.document2;whiteSpace=wrap;size=0.25;fillColor=none;verticalAlign=top;align=left;" parent="1" vertex="1">
          <mxGeometry x="20" y="-1080" width="160" height="80" as="geometry" />
        </mxCell>
        <mxCell id="zySXvPcrDHUHWEe6Bgsd-15" value="F" style="text;html=1;strokeColor=none;fillColor=none;align=center;verticalAlign=middle;whiteSpace=wrap;rounded=0;" parent="1" vertex="1">
          <mxGeometry x="250" y="-470" width="60" height="30" as="geometry" />
        </mxCell>
        <mxCell id="I1k0W_17Z2Uq4uEOYSEl-14" value="" style="edgeStyle=orthogonalEdgeStyle;rounded=0;orthogonalLoop=1;jettySize=auto;html=1;" parent="1" source="I1k0W_17Z2Uq4uEOYSEl-12" target="I1k0W_17Z2Uq4uEOYSEl-13" edge="1">
          <mxGeometry relative="1" as="geometry" />
        </mxCell>
        <mxCell id="I1k0W_17Z2Uq4uEOYSEl-12" value="FSS Kafka Producer" style="rounded=0;whiteSpace=wrap;html=1;strokeWidth=2;" parent="1" vertex="1">
          <mxGeometry x="320" y="-1050" width="160" height="90" as="geometry" />
        </mxCell>
        <mxCell id="FVRr2erZ48DCLfPeALmE-1" value="" style="edgeStyle=orthogonalEdgeStyle;rounded=0;orthogonalLoop=1;jettySize=auto;html=1;" parent="1" source="I1k0W_17Z2Uq4uEOYSEl-13" edge="1">
          <mxGeometry relative="1" as="geometry">
            <mxPoint x="400" y="-800" as="targetPoint" />
          </mxGeometry>
        </mxCell>
        <mxCell id="I1k0W_17Z2Uq4uEOYSEl-13" value="CADS Kafka Consumer" style="rounded=0;whiteSpace=wrap;html=1;strokeWidth=2;" parent="1" vertex="1">
          <mxGeometry x="320" y="-920" width="160" height="80" as="geometry" />
        </mxCell>
        <mxCell id="Yiz0KBUJUohgzba4VhbD-4" value="" style="edgeStyle=orthogonalEdgeStyle;rounded=0;orthogonalLoop=1;jettySize=auto;html=1;" parent="1" source="I1k0W_17Z2Uq4uEOYSEl-16" target="Yiz0KBUJUohgzba4VhbD-2" edge="1">
          <mxGeometry relative="1" as="geometry" />
        </mxCell>
        <mxCell id="I1k0W_17Z2Uq4uEOYSEl-16" value="Recieve Message" style="rounded=1;whiteSpace=wrap;html=1;absoluteArcSize=1;arcSize=14;strokeWidth=2;" parent="1" vertex="1">
          <mxGeometry x="320" y="-800" width="160" height="160" as="geometry" />
        </mxCell>
        <mxCell id="zySXvPcrDHUHWEe6Bgsd-3" value="" style="edgeStyle=orthogonalEdgeStyle;rounded=0;orthogonalLoop=1;jettySize=auto;html=1;" parent="1" source="FVRr2erZ48DCLfPeALmE-2" target="zySXvPcrDHUHWEe6Bgsd-2" edge="1">
          <mxGeometry relative="1" as="geometry" />
        </mxCell>
        <mxCell id="woYJ1ixEDE-KK4LjraKT-10" value="" style="edgeStyle=orthogonalEdgeStyle;rounded=0;orthogonalLoop=1;jettySize=auto;html=1;" parent="1" source="FVRr2erZ48DCLfPeALmE-2" target="woYJ1ixEDE-KK4LjraKT-9" edge="1">
          <mxGeometry relative="1" as="geometry" />
        </mxCell>
        <mxCell id="FVRr2erZ48DCLfPeALmE-2" value="msg != error" style="strokeWidth=2;html=1;shape=mxgraph.flowchart.decision;whiteSpace=wrap;" parent="1" vertex="1">
          <mxGeometry x="320" y="-360" width="160" height="80" as="geometry" />
        </mxCell>
        <mxCell id="zySXvPcrDHUHWEe6Bgsd-7" value="" style="edgeStyle=orthogonalEdgeStyle;rounded=0;orthogonalLoop=1;jettySize=auto;html=1;" parent="1" source="Yiz0KBUJUohgzba4VhbD-2" target="zySXvPcrDHUHWEe6Bgsd-6" edge="1">
          <mxGeometry relative="1" as="geometry" />
        </mxCell>
        <mxCell id="Yiz0KBUJUohgzba4VhbD-2" value="Message" style="shape=parallelogram;html=1;strokeWidth=2;perimeter=parallelogramPerimeter;whiteSpace=wrap;rounded=1;arcSize=12;size=0.23;" parent="1" vertex="1">
          <mxGeometry x="320" y="-600" width="160" height="80" as="geometry" />
        </mxCell>
        <mxCell id="zySXvPcrDHUHWEe6Bgsd-10" style="edgeStyle=orthogonalEdgeStyle;rounded=0;orthogonalLoop=1;jettySize=auto;html=1;entryX=0;entryY=0.75;entryDx=0;entryDy=0;" parent="1" source="zySXvPcrDHUHWEe6Bgsd-2" target="I1k0W_17Z2Uq4uEOYSEl-16" edge="1">
          <mxGeometry relative="1" as="geometry">
            <mxPoint x="320" y="-760" as="targetPoint" />
            <Array as="points">
              <mxPoint x="200" y="-680" />
            </Array>
          </mxGeometry>
        </mxCell>
        <mxCell id="zySXvPcrDHUHWEe6Bgsd-2" value="ERROR" style="shape=parallelogram;html=1;strokeWidth=2;perimeter=parallelogramPerimeter;whiteSpace=wrap;rounded=1;arcSize=12;size=0.23;" parent="1" vertex="1">
          <mxGeometry x="120" y="-360" width="160" height="80" as="geometry" />
        </mxCell>
        <mxCell id="zySXvPcrDHUHWEe6Bgsd-5" value="F" style="text;html=1;strokeColor=none;fillColor=none;align=center;verticalAlign=middle;whiteSpace=wrap;rounded=0;" parent="1" vertex="1">
          <mxGeometry x="270" y="-340" width="60" height="30" as="geometry" />
        </mxCell>
        <mxCell id="zySXvPcrDHUHWEe6Bgsd-8" value="" style="edgeStyle=orthogonalEdgeStyle;rounded=0;orthogonalLoop=1;jettySize=auto;html=1;" parent="1" source="zySXvPcrDHUHWEe6Bgsd-6" target="FVRr2erZ48DCLfPeALmE-2" edge="1">
          <mxGeometry relative="1" as="geometry" />
        </mxCell>
        <mxCell id="zySXvPcrDHUHWEe6Bgsd-6" value="msg != None" style="strokeWidth=2;html=1;shape=mxgraph.flowchart.decision;whiteSpace=wrap;" parent="1" vertex="1">
          <mxGeometry x="320" y="-480" width="160" height="80" as="geometry" />
        </mxCell>
        <mxCell id="zySXvPcrDHUHWEe6Bgsd-14" value="T" style="text;html=1;strokeColor=none;fillColor=none;align=center;verticalAlign=middle;whiteSpace=wrap;rounded=0;" parent="1" vertex="1">
          <mxGeometry x="380" y="-390" width="60" height="30" as="geometry" />
        </mxCell>
        <mxCell id="woYJ1ixEDE-KK4LjraKT-13" value="" style="edgeStyle=orthogonalEdgeStyle;rounded=0;orthogonalLoop=1;jettySize=auto;html=1;" parent="1" source="zySXvPcrDHUHWEe6Bgsd-19" target="woYJ1ixEDE-KK4LjraKT-12" edge="1">
          <mxGeometry relative="1" as="geometry" />
        </mxCell>
        <mxCell id="zySXvPcrDHUHWEe6Bgsd-19" value="Parrse message" style="rounded=1;whiteSpace=wrap;html=1;strokeWidth=2;" parent="1" vertex="1">
          <mxGeometry x="320" y="-120" width="160" height="80" as="geometry" />
        </mxCell>
        <mxCell id="woYJ1ixEDE-KK4LjraKT-8" style="edgeStyle=orthogonalEdgeStyle;rounded=0;orthogonalLoop=1;jettySize=auto;html=1;exitX=0;exitY=0.5;exitDx=0;exitDy=0;exitPerimeter=0;" parent="1" source="woYJ1ixEDE-KK4LjraKT-9" edge="1">
          <mxGeometry relative="1" as="geometry">
            <mxPoint x="319.6" y="-280" as="sourcePoint" />
            <mxPoint x="320" y="-700" as="targetPoint" />
            <Array as="points">
              <mxPoint x="80" y="-200" />
              <mxPoint x="80" y="-700" />
              <mxPoint x="320" y="-700" />
            </Array>
          </mxGeometry>
        </mxCell>
        <mxCell id="woYJ1ixEDE-KK4LjraKT-11" value="" style="edgeStyle=orthogonalEdgeStyle;rounded=0;orthogonalLoop=1;jettySize=auto;html=1;" parent="1" source="woYJ1ixEDE-KK4LjraKT-9" target="zySXvPcrDHUHWEe6Bgsd-19" edge="1">
          <mxGeometry relative="1" as="geometry" />
        </mxCell>
        <mxCell id="woYJ1ixEDE-KK4LjraKT-9" value="msg == string" style="strokeWidth=2;html=1;shape=mxgraph.flowchart.decision;whiteSpace=wrap;" parent="1" vertex="1">
          <mxGeometry x="320" y="-240" width="160" height="80" as="geometry" />
        </mxCell>
        <mxCell id="woYJ1ixEDE-KK4LjraKT-15" value="" style="edgeStyle=orthogonalEdgeStyle;rounded=0;orthogonalLoop=1;jettySize=auto;html=1;" parent="1" source="woYJ1ixEDE-KK4LjraKT-12" target="woYJ1ixEDE-KK4LjraKT-14" edge="1">
          <mxGeometry relative="1" as="geometry" />
        </mxCell>
        <mxCell id="woYJ1ixEDE-KK4LjraKT-12" value="camid&lt;br&gt;video url&lt;br&gt;timestamp" style="rounded=0;whiteSpace=wrap;html=1;strokeWidth=2;" parent="1" vertex="1">
          <mxGeometry x="320" width="160" height="80" as="geometry" />
        </mxCell>
        <mxCell id="woYJ1ixEDE-KK4LjraKT-16" style="edgeStyle=orthogonalEdgeStyle;rounded=0;orthogonalLoop=1;jettySize=auto;html=1;exitX=1;exitY=0.5;exitDx=0;exitDy=0;" parent="1" source="woYJ1ixEDE-KK4LjraKT-14" target="I1k0W_17Z2Uq4uEOYSEl-16" edge="1">
          <mxGeometry relative="1" as="geometry">
            <Array as="points">
              <mxPoint x="560" y="160" />
              <mxPoint x="560" y="-660" />
            </Array>
          </mxGeometry>
        </mxCell>
        <mxCell id="woYJ1ixEDE-KK4LjraKT-18" value="" style="edgeStyle=orthogonalEdgeStyle;rounded=0;orthogonalLoop=1;jettySize=auto;html=1;" parent="1" source="woYJ1ixEDE-KK4LjraKT-14" target="woYJ1ixEDE-KK4LjraKT-17" edge="1">
          <mxGeometry relative="1" as="geometry" />
        </mxCell>
        <mxCell id="woYJ1ixEDE-KK4LjraKT-14" value="check camid" style="rhombus;whiteSpace=wrap;html=1;strokeWidth=2;" parent="1" vertex="1">
          <mxGeometry x="320" y="120" width="160" height="80" as="geometry" />
        </mxCell>
        <mxCell id="woYJ1ixEDE-KK4LjraKT-19" style="edgeStyle=orthogonalEdgeStyle;rounded=0;orthogonalLoop=1;jettySize=auto;html=1;entryX=1;entryY=0.75;entryDx=0;entryDy=0;" parent="1" source="woYJ1ixEDE-KK4LjraKT-17" target="I1k0W_17Z2Uq4uEOYSEl-16" edge="1">
          <mxGeometry relative="1" as="geometry">
            <Array as="points">
              <mxPoint x="600" y="280" />
              <mxPoint x="600" y="-680" />
            </Array>
          </mxGeometry>
        </mxCell>
        <mxCell id="woYJ1ixEDE-KK4LjraKT-21" value="" style="edgeStyle=orthogonalEdgeStyle;rounded=0;orthogonalLoop=1;jettySize=auto;html=1;" parent="1" source="woYJ1ixEDE-KK4LjraKT-17" edge="1">
          <mxGeometry relative="1" as="geometry">
            <mxPoint x="400" y="360" as="targetPoint" />
          </mxGeometry>
        </mxCell>
        <mxCell id="woYJ1ixEDE-KK4LjraKT-17" value="check line config" style="rhombus;whiteSpace=wrap;html=1;strokeWidth=2;" parent="1" vertex="1">
          <mxGeometry x="320" y="240" width="160" height="80" as="geometry" />
        </mxCell>
        <mxCell id="woYJ1ixEDE-KK4LjraKT-24" value="" style="edgeStyle=orthogonalEdgeStyle;rounded=0;orthogonalLoop=1;jettySize=auto;html=1;" parent="1" source="woYJ1ixEDE-KK4LjraKT-22" target="woYJ1ixEDE-KK4LjraKT-23" edge="1">
          <mxGeometry relative="1" as="geometry" />
        </mxCell>
        <mxCell id="woYJ1ixEDE-KK4LjraKT-22" value="Get cam zone,&lt;br&gt;video information" style="rounded=1;whiteSpace=wrap;html=1;absoluteArcSize=1;arcSize=14;strokeWidth=2;" parent="1" vertex="1">
          <mxGeometry x="320" y="360" width="160" height="80" as="geometry" />
        </mxCell>
        <mxCell id="woYJ1ixEDE-KK4LjraKT-25" style="edgeStyle=orthogonalEdgeStyle;rounded=0;orthogonalLoop=1;jettySize=auto;html=1;" parent="1" source="woYJ1ixEDE-KK4LjraKT-23" edge="1">
          <mxGeometry relative="1" as="geometry">
            <mxPoint x="480" y="-700" as="targetPoint" />
            <Array as="points">
              <mxPoint x="640" y="520" />
              <mxPoint x="640" y="-700" />
              <mxPoint x="479" y="-700" />
            </Array>
          </mxGeometry>
        </mxCell>
        <mxCell id="F2PvqQMGgAz6zbTbvraV-2" value="" style="edgeStyle=orthogonalEdgeStyle;rounded=0;orthogonalLoop=1;jettySize=auto;html=1;" parent="1" source="woYJ1ixEDE-KK4LjraKT-23" target="F2PvqQMGgAz6zbTbvraV-1" edge="1">
          <mxGeometry relative="1" as="geometry" />
        </mxCell>
        <mxCell id="woYJ1ixEDE-KK4LjraKT-23" value="check video" style="rhombus;whiteSpace=wrap;html=1;rounded=1;arcSize=14;strokeWidth=2;" parent="1" vertex="1">
          <mxGeometry x="320" y="480" width="160" height="80" as="geometry" />
        </mxCell>
        <mxCell id="woYJ1ixEDE-KK4LjraKT-27" style="edgeStyle=orthogonalEdgeStyle;rounded=0;orthogonalLoop=1;jettySize=auto;html=1;exitX=0;exitY=0.5;exitDx=0;exitDy=0;exitPerimeter=0;entryX=-0.006;entryY=0.869;entryDx=0;entryDy=0;entryPerimeter=0;" parent="1" source="zySXvPcrDHUHWEe6Bgsd-6" target="I1k0W_17Z2Uq4uEOYSEl-16" edge="1">
          <mxGeometry relative="1" as="geometry">
            <Array as="points">
              <mxPoint x="240" y="-440" />
              <mxPoint x="240" y="-661" />
            </Array>
          </mxGeometry>
        </mxCell>
        <mxCell id="F2PvqQMGgAz6zbTbvraV-4" value="" style="edgeStyle=orthogonalEdgeStyle;rounded=0;orthogonalLoop=1;jettySize=auto;html=1;" parent="1" source="F2PvqQMGgAz6zbTbvraV-1" target="F2PvqQMGgAz6zbTbvraV-3" edge="1">
          <mxGeometry relative="1" as="geometry" />
        </mxCell>
        <mxCell id="F2PvqQMGgAz6zbTbvraV-1" value="Transform line config from norm coordinates to model size coordinates" style="whiteSpace=wrap;html=1;rounded=1;arcSize=14;strokeWidth=2;" parent="1" vertex="1">
          <mxGeometry x="320" y="600" width="160" height="80" as="geometry" />
        </mxCell>
        <mxCell id="F2PvqQMGgAz6zbTbvraV-5" style="edgeStyle=orthogonalEdgeStyle;rounded=0;orthogonalLoop=1;jettySize=auto;html=1;entryX=1;entryY=0.5;entryDx=0;entryDy=0;" parent="1" source="F2PvqQMGgAz6zbTbvraV-3" target="I1k0W_17Z2Uq4uEOYSEl-16" edge="1">
          <mxGeometry relative="1" as="geometry">
            <Array as="points">
              <mxPoint x="680" y="760" />
              <mxPoint x="680" y="-720" />
            </Array>
          </mxGeometry>
        </mxCell>
        <mxCell id="oBcwz840jDXRNYfP-MNU-2" value="" style="edgeStyle=orthogonalEdgeStyle;rounded=0;orthogonalLoop=1;jettySize=auto;html=1;" parent="1" source="F2PvqQMGgAz6zbTbvraV-3" target="oBcwz840jDXRNYfP-MNU-1" edge="1">
          <mxGeometry relative="1" as="geometry" />
        </mxCell>
        <mxCell id="F2PvqQMGgAz6zbTbvraV-3" value="line config != default" style="rhombus;whiteSpace=wrap;html=1;rounded=1;arcSize=14;strokeWidth=2;" parent="1" vertex="1">
          <mxGeometry x="320" y="720" width="160" height="80" as="geometry" />
        </mxCell>
        <mxCell id="oBcwz840jDXRNYfP-MNU-4" value="" style="edgeStyle=orthogonalEdgeStyle;rounded=0;orthogonalLoop=1;jettySize=auto;html=1;" parent="1" source="oBcwz840jDXRNYfP-MNU-1" edge="1">
          <mxGeometry relative="1" as="geometry">
            <mxPoint x="480" y="-744" as="targetPoint" />
            <Array as="points">
              <mxPoint x="720" y="880" />
              <mxPoint x="720" y="-744" />
            </Array>
          </mxGeometry>
        </mxCell>
        <mxCell id="oBcwz840jDXRNYfP-MNU-10" value="" style="edgeStyle=orthogonalEdgeStyle;rounded=0;orthogonalLoop=1;jettySize=auto;html=1;" parent="1" source="oBcwz840jDXRNYfP-MNU-1" target="oBcwz840jDXRNYfP-MNU-9" edge="1">
          <mxGeometry relative="1" as="geometry" />
        </mxCell>
        <mxCell id="oBcwz840jDXRNYfP-MNU-1" value="check timestamp" style="rhombus;whiteSpace=wrap;html=1;rounded=1;arcSize=14;strokeWidth=2;" parent="1" vertex="1">
          <mxGeometry x="320" y="840" width="160" height="80" as="geometry" />
        </mxCell>
        <mxCell id="oBcwz840jDXRNYfP-MNU-5" value="timestamp appeared" style="text;html=1;strokeColor=none;fillColor=none;align=center;verticalAlign=middle;whiteSpace=wrap;rounded=0;" parent="1" vertex="1">
          <mxGeometry x="490" y="840" width="60" height="30" as="geometry" />
        </mxCell>
        <mxCell id="oBcwz840jDXRNYfP-MNU-12" style="edgeStyle=orthogonalEdgeStyle;rounded=0;orthogonalLoop=1;jettySize=auto;html=1;entryX=1;entryY=0.25;entryDx=0;entryDy=0;" parent="1" target="I1k0W_17Z2Uq4uEOYSEl-16" edge="1">
          <mxGeometry relative="1" as="geometry">
            <mxPoint x="760" y="1000" as="sourcePoint" />
            <Array as="points">
              <mxPoint x="800" y="1000" />
              <mxPoint x="800" y="-760" />
            </Array>
          </mxGeometry>
        </mxCell>
        <mxCell id="oBcwz840jDXRNYfP-MNU-14" value="" style="edgeStyle=orthogonalEdgeStyle;rounded=0;orthogonalLoop=1;jettySize=auto;html=1;" parent="1" source="oBcwz840jDXRNYfP-MNU-9" target="oBcwz840jDXRNYfP-MNU-13" edge="1">
          <mxGeometry relative="1" as="geometry" />
        </mxCell>
        <mxCell id="oBcwz840jDXRNYfP-MNU-18" value="" style="edgeStyle=orthogonalEdgeStyle;rounded=0;orthogonalLoop=1;jettySize=auto;html=1;" parent="1" source="oBcwz840jDXRNYfP-MNU-9" target="oBcwz840jDXRNYfP-MNU-17" edge="1">
          <mxGeometry relative="1" as="geometry" />
        </mxCell>
        <mxCell id="oBcwz840jDXRNYfP-MNU-9" value="check time in processing time&lt;br style=&quot;font-size: 10px;&quot;&gt;or cam id not in test cam" style="rhombus;whiteSpace=wrap;html=1;rounded=1;arcSize=14;strokeWidth=2;fontSize=10;" parent="1" vertex="1">
          <mxGeometry x="320" y="960" width="160" height="80" as="geometry" />
        </mxCell>
        <mxCell id="oBcwz840jDXRNYfP-MNU-11" value="timestamp didn&#39;t appeared" style="text;html=1;strokeColor=none;fillColor=none;align=center;verticalAlign=middle;whiteSpace=wrap;rounded=0;" parent="1" vertex="1">
          <mxGeometry x="410" y="920" width="90" height="30" as="geometry" />
        </mxCell>
        <mxCell id="oBcwz840jDXRNYfP-MNU-15" style="edgeStyle=orthogonalEdgeStyle;rounded=0;orthogonalLoop=1;jettySize=auto;html=1;exitX=1;exitY=0.5;exitDx=0;exitDy=0;" parent="1" source="oBcwz840jDXRNYfP-MNU-13" edge="1">
          <mxGeometry relative="1" as="geometry">
            <mxPoint x="640" y="1000" as="targetPoint" />
          </mxGeometry>
        </mxCell>
        <mxCell id="oBcwz840jDXRNYfP-MNU-13" value="&lt;span style=&quot;font-size: 12px;&quot;&gt;in_count = 0&lt;br&gt;out_count = 0&lt;br&gt;&lt;/span&gt;" style="whiteSpace=wrap;html=1;fontSize=10;rounded=1;arcSize=14;strokeWidth=2;" parent="1" vertex="1">
          <mxGeometry x="520" y="960" width="80" height="80" as="geometry" />
        </mxCell>
        <mxCell id="oBcwz840jDXRNYfP-MNU-16" value="send message result to redis topic result with zone" style="rounded=1;whiteSpace=wrap;html=1;strokeWidth=2;" parent="1" vertex="1">
          <mxGeometry x="640" y="960" width="120" height="80" as="geometry" />
        </mxCell>
        <mxCell id="oBcwz840jDXRNYfP-MNU-19" style="edgeStyle=orthogonalEdgeStyle;rounded=0;orthogonalLoop=1;jettySize=auto;html=1;entryX=0;entryY=0.5;entryDx=0;entryDy=0;" parent="1" source="oBcwz840jDXRNYfP-MNU-17" target="I1k0W_17Z2Uq4uEOYSEl-16" edge="1">
          <mxGeometry relative="1" as="geometry">
            <Array as="points">
              <mxPoint x="40" y="1000" />
              <mxPoint x="40" y="-720" />
            </Array>
          </mxGeometry>
        </mxCell>
        <mxCell id="oBcwz840jDXRNYfP-MNU-17" value="&lt;span style=&quot;color: rgb(0, 0, 0); font-family: Helvetica; font-size: 12px; font-style: normal; font-variant-ligatures: normal; font-variant-caps: normal; font-weight: 400; letter-spacing: normal; orphans: 2; text-align: center; text-indent: 0px; text-transform: none; widows: 2; word-spacing: 0px; -webkit-text-stroke-width: 0px; background-color: rgb(251, 251, 251); text-decoration-thickness: initial; text-decoration-style: initial; text-decoration-color: initial; float: none; display: inline !important;&quot;&gt;send message process to redis topic process with zone&lt;/span&gt;" style="whiteSpace=wrap;html=1;fontSize=10;rounded=1;arcSize=14;strokeWidth=2;" parent="1" vertex="1">
          <mxGeometry x="80" y="960" width="200" height="80" as="geometry" />
        </mxCell>
        <mxCell id="oBcwz840jDXRNYfP-MNU-20" value="T" style="text;html=1;strokeColor=none;fillColor=none;align=center;verticalAlign=middle;whiteSpace=wrap;rounded=0;" parent="1" vertex="1">
          <mxGeometry x="380" y="-270" width="60" height="30" as="geometry" />
        </mxCell>
        <mxCell id="oBcwz840jDXRNYfP-MNU-21" value="T" style="text;html=1;strokeColor=none;fillColor=none;align=center;verticalAlign=middle;whiteSpace=wrap;rounded=0;" parent="1" vertex="1">
          <mxGeometry x="380" y="-160" width="60" height="30" as="geometry" />
        </mxCell>
        <mxCell id="oBcwz840jDXRNYfP-MNU-22" value="F" style="text;html=1;strokeColor=none;fillColor=none;align=center;verticalAlign=middle;whiteSpace=wrap;rounded=0;" parent="1" vertex="1">
          <mxGeometry x="260" y="-230" width="60" height="30" as="geometry" />
        </mxCell>
        <mxCell id="oBcwz840jDXRNYfP-MNU-24" value="valid" style="text;html=1;strokeColor=none;fillColor=none;align=center;verticalAlign=middle;whiteSpace=wrap;rounded=0;" parent="1" vertex="1">
          <mxGeometry x="395" y="200" width="60" height="30" as="geometry" />
        </mxCell>
        <mxCell id="oBcwz840jDXRNYfP-MNU-25" value="not valid" style="text;html=1;strokeColor=none;fillColor=none;align=center;verticalAlign=middle;whiteSpace=wrap;rounded=0;" parent="1" vertex="1">
          <mxGeometry x="480" y="130" width="60" height="30" as="geometry" />
        </mxCell>
        <mxCell id="oBcwz840jDXRNYfP-MNU-26" value="valid" style="text;html=1;strokeColor=none;fillColor=none;align=center;verticalAlign=middle;whiteSpace=wrap;rounded=0;" parent="1" vertex="1">
          <mxGeometry x="395" y="320" width="60" height="30" as="geometry" />
        </mxCell>
        <mxCell id="oBcwz840jDXRNYfP-MNU-27" value="not valid" style="text;html=1;strokeColor=none;fillColor=none;align=center;verticalAlign=middle;whiteSpace=wrap;rounded=0;" parent="1" vertex="1">
          <mxGeometry x="500" y="250" width="60" height="30" as="geometry" />
        </mxCell>
        <mxCell id="oBcwz840jDXRNYfP-MNU-28" value="valid" style="text;html=1;strokeColor=none;fillColor=none;align=center;verticalAlign=middle;whiteSpace=wrap;rounded=0;" parent="1" vertex="1">
          <mxGeometry x="395" y="560" width="60" height="30" as="geometry" />
        </mxCell>
        <mxCell id="oBcwz840jDXRNYfP-MNU-29" value="not valid" style="text;html=1;strokeColor=none;fillColor=none;align=center;verticalAlign=middle;whiteSpace=wrap;rounded=0;" parent="1" vertex="1">
          <mxGeometry x="510" y="490" width="60" height="30" as="geometry" />
        </mxCell>
        <mxCell id="oBcwz840jDXRNYfP-MNU-30" value="T" style="text;html=1;strokeColor=none;fillColor=none;align=center;verticalAlign=middle;whiteSpace=wrap;rounded=0;" parent="1" vertex="1">
          <mxGeometry x="390" y="800" width="60" height="30" as="geometry" />
        </mxCell>
        <mxCell id="oBcwz840jDXRNYfP-MNU-31" value="F" style="text;html=1;strokeColor=none;fillColor=none;align=center;verticalAlign=middle;whiteSpace=wrap;rounded=0;" parent="1" vertex="1">
          <mxGeometry x="470" y="730" width="60" height="30" as="geometry" />
        </mxCell>
        <mxCell id="oBcwz840jDXRNYfP-MNU-32" value="T" style="text;html=1;strokeColor=none;fillColor=none;align=center;verticalAlign=middle;whiteSpace=wrap;rounded=0;" parent="1" vertex="1">
          <mxGeometry x="270" y="970" width="60" height="30" as="geometry" />
        </mxCell>
        <mxCell id="oBcwz840jDXRNYfP-MNU-33" value="F" style="text;html=1;strokeColor=none;fillColor=none;align=center;verticalAlign=middle;whiteSpace=wrap;rounded=0;" parent="1" vertex="1">
          <mxGeometry x="460" y="970" width="60" height="30" as="geometry" />
        </mxCell>
      </root>
    </mxGraphModel>
  </diagram>
  <diagram id="Fa9qEKNsyprh8V_eVMWT" name="People Counting Process">
    <mxGraphModel dx="1362" dy="771" grid="1" gridSize="10" guides="1" tooltips="1" connect="1" arrows="1" fold="1" page="1" pageScale="1" pageWidth="850" pageHeight="1100" math="0" shadow="0">
      <root>
        <mxCell id="0" />
        <mxCell id="1" parent="0" />
        <mxCell id="zrhfUWJe1uC0OmpLyOpc-1" value="&lt;b&gt;&lt;i style=&quot;&quot;&gt;&lt;font style=&quot;font-size: 24px;&quot;&gt;Thread Loading Video&lt;/font&gt;&lt;/i&gt;&lt;/b&gt;" style="rounded=1;whiteSpace=wrap;html=1;absoluteArcSize=1;arcSize=14;strokeWidth=2;fillColor=none;dashed=1;align=left;verticalAlign=top;" parent="1" vertex="1">
          <mxGeometry x="30" y="260" width="800" height="290" as="geometry" />
        </mxCell>
        <mxCell id="zrhfUWJe1uC0OmpLyOpc-2" value="&lt;b&gt;&lt;i style=&quot;&quot;&gt;&lt;font style=&quot;font-size: 24px;&quot;&gt;Thread Detection&lt;/font&gt;&lt;/i&gt;&lt;/b&gt;" style="rounded=1;whiteSpace=wrap;html=1;absoluteArcSize=1;arcSize=14;strokeWidth=2;fillColor=none;dashed=1;align=left;verticalAlign=top;" parent="1" vertex="1">
          <mxGeometry x="120" y="780" width="550" height="380" as="geometry" />
        </mxCell>
        <mxCell id="zrhfUWJe1uC0OmpLyOpc-3" value="" style="edgeStyle=orthogonalEdgeStyle;rounded=0;orthogonalLoop=1;jettySize=auto;html=1;entryX=0.5;entryY=0;entryDx=0;entryDy=0;entryPerimeter=0;" parent="1" source="AyU8M4hoDukCYJioR-Rg-35" target="7YYB59KYBVQRV5arXoAF-1" edge="1">
          <mxGeometry relative="1" as="geometry">
            <mxPoint x="400" y="1200" as="targetPoint" />
          </mxGeometry>
        </mxCell>
        <mxCell id="AyU8M4hoDukCYJioR-Rg-35" value="Output YOLO" style="shape=parallelogram;html=1;strokeWidth=2;perimeter=parallelogramPerimeter;whiteSpace=wrap;rounded=1;arcSize=12;size=0.23;fillColor=none;verticalAlign=top;" parent="1" vertex="1">
          <mxGeometry x="220" y="1000" width="360" height="120" as="geometry" />
        </mxCell>
        <mxCell id="AyU8M4hoDukCYJioR-Rg-22" value="&lt;b&gt;Batch Frame Manager&lt;/b&gt;" style="rounded=0;whiteSpace=wrap;html=1;fillColor=none;strokeWidth=2;verticalAlign=top;" parent="1" vertex="1">
          <mxGeometry x="320" y="560" width="200" height="200" as="geometry" />
        </mxCell>
        <mxCell id="AyU8M4hoDukCYJioR-Rg-7" value="" style="edgeStyle=orthogonalEdgeStyle;rounded=0;orthogonalLoop=1;jettySize=auto;html=1;" parent="1" source="lzIlA2ZIQVn-nAbmfFVQ-1" target="AyU8M4hoDukCYJioR-Rg-2" edge="1">
          <mxGeometry relative="1" as="geometry" />
        </mxCell>
        <mxCell id="lzIlA2ZIQVn-nAbmfFVQ-1" value="Video Stream Process 0" style="rounded=1;whiteSpace=wrap;html=1;strokeWidth=2;" parent="1" vertex="1">
          <mxGeometry x="60" y="320" width="120" height="80" as="geometry" />
        </mxCell>
        <mxCell id="AyU8M4hoDukCYJioR-Rg-8" value="" style="edgeStyle=orthogonalEdgeStyle;rounded=0;orthogonalLoop=1;jettySize=auto;html=1;" parent="1" source="lzIlA2ZIQVn-nAbmfFVQ-3" target="AyU8M4hoDukCYJioR-Rg-3" edge="1">
          <mxGeometry relative="1" as="geometry" />
        </mxCell>
        <mxCell id="lzIlA2ZIQVn-nAbmfFVQ-3" value="Video Stream Process 1" style="rounded=1;whiteSpace=wrap;html=1;strokeWidth=2;" parent="1" vertex="1">
          <mxGeometry x="260" y="320" width="120" height="80" as="geometry" />
        </mxCell>
        <mxCell id="AyU8M4hoDukCYJioR-Rg-9" value="" style="edgeStyle=orthogonalEdgeStyle;rounded=0;orthogonalLoop=1;jettySize=auto;html=1;" parent="1" source="lzIlA2ZIQVn-nAbmfFVQ-4" target="AyU8M4hoDukCYJioR-Rg-4" edge="1">
          <mxGeometry relative="1" as="geometry" />
        </mxCell>
        <mxCell id="lzIlA2ZIQVn-nAbmfFVQ-4" value="Video Stream Process 2" style="rounded=1;whiteSpace=wrap;html=1;strokeWidth=2;" parent="1" vertex="1">
          <mxGeometry x="460" y="320" width="120" height="80" as="geometry" />
        </mxCell>
        <mxCell id="AyU8M4hoDukCYJioR-Rg-10" value="" style="edgeStyle=orthogonalEdgeStyle;rounded=0;orthogonalLoop=1;jettySize=auto;html=1;" parent="1" source="lzIlA2ZIQVn-nAbmfFVQ-5" target="AyU8M4hoDukCYJioR-Rg-5" edge="1">
          <mxGeometry relative="1" as="geometry" />
        </mxCell>
        <mxCell id="lzIlA2ZIQVn-nAbmfFVQ-5" value="Video Stream Process n" style="rounded=1;whiteSpace=wrap;html=1;strokeWidth=2;" parent="1" vertex="1">
          <mxGeometry x="660" y="320" width="120" height="80" as="geometry" />
        </mxCell>
        <mxCell id="lzIlA2ZIQVn-nAbmfFVQ-6" value="" style="verticalLabelPosition=bottom;verticalAlign=top;html=1;shape=mxgraph.flowchart.parallel_mode;pointerEvents=1;strokeWidth=2;" parent="1" vertex="1">
          <mxGeometry x="180" y="340" width="80" height="40" as="geometry" />
        </mxCell>
        <mxCell id="lzIlA2ZIQVn-nAbmfFVQ-7" value="" style="verticalLabelPosition=bottom;verticalAlign=top;html=1;shape=mxgraph.flowchart.parallel_mode;pointerEvents=1;strokeWidth=2;" parent="1" vertex="1">
          <mxGeometry x="380" y="340" width="80" height="40" as="geometry" />
        </mxCell>
        <mxCell id="lzIlA2ZIQVn-nAbmfFVQ-8" value="" style="verticalLabelPosition=bottom;verticalAlign=top;html=1;shape=mxgraph.flowchart.parallel_mode;pointerEvents=1;strokeWidth=2;" parent="1" vertex="1">
          <mxGeometry x="580" y="340" width="80" height="40" as="geometry" />
        </mxCell>
        <mxCell id="pl1GUSUyrn0vaZ__kh7W-8" value="" style="edgeStyle=orthogonalEdgeStyle;rounded=0;orthogonalLoop=1;jettySize=auto;html=1;" parent="1" source="pl1GUSUyrn0vaZ__kh7W-1" target="pl1GUSUyrn0vaZ__kh7W-7" edge="1">
          <mxGeometry relative="1" as="geometry" />
        </mxCell>
        <mxCell id="pl1GUSUyrn0vaZ__kh7W-1" value="Redis&amp;nbsp;subscribe" style="rounded=0;whiteSpace=wrap;html=1;strokeWidth=2;" parent="1" vertex="1">
          <mxGeometry x="360" y="40" width="160" height="80" as="geometry" />
        </mxCell>
        <mxCell id="pl1GUSUyrn0vaZ__kh7W-9" style="edgeStyle=orthogonalEdgeStyle;rounded=0;orthogonalLoop=1;jettySize=auto;html=1;entryX=0.5;entryY=0;entryDx=0;entryDy=0;" parent="1" source="pl1GUSUyrn0vaZ__kh7W-7" target="lzIlA2ZIQVn-nAbmfFVQ-1" edge="1">
          <mxGeometry relative="1" as="geometry" />
        </mxCell>
        <mxCell id="pl1GUSUyrn0vaZ__kh7W-10" style="edgeStyle=orthogonalEdgeStyle;rounded=0;orthogonalLoop=1;jettySize=auto;html=1;exitX=0.25;exitY=1;exitDx=0;exitDy=0;entryX=0.5;entryY=0;entryDx=0;entryDy=0;" parent="1" source="pl1GUSUyrn0vaZ__kh7W-7" target="lzIlA2ZIQVn-nAbmfFVQ-3" edge="1">
          <mxGeometry relative="1" as="geometry" />
        </mxCell>
        <mxCell id="pl1GUSUyrn0vaZ__kh7W-11" style="edgeStyle=orthogonalEdgeStyle;rounded=0;orthogonalLoop=1;jettySize=auto;html=1;exitX=0.5;exitY=1;exitDx=0;exitDy=0;entryX=0.5;entryY=0;entryDx=0;entryDy=0;" parent="1" source="pl1GUSUyrn0vaZ__kh7W-7" target="lzIlA2ZIQVn-nAbmfFVQ-4" edge="1">
          <mxGeometry relative="1" as="geometry" />
        </mxCell>
        <mxCell id="pl1GUSUyrn0vaZ__kh7W-12" style="edgeStyle=orthogonalEdgeStyle;rounded=0;orthogonalLoop=1;jettySize=auto;html=1;exitX=1;exitY=0.5;exitDx=0;exitDy=0;entryX=0.5;entryY=0;entryDx=0;entryDy=0;" parent="1" source="pl1GUSUyrn0vaZ__kh7W-7" target="lzIlA2ZIQVn-nAbmfFVQ-5" edge="1">
          <mxGeometry relative="1" as="geometry" />
        </mxCell>
        <mxCell id="pl1GUSUyrn0vaZ__kh7W-7" value="Message" style="shape=parallelogram;html=1;strokeWidth=2;perimeter=parallelogramPerimeter;whiteSpace=wrap;rounded=1;arcSize=12;size=0.23;" parent="1" vertex="1">
          <mxGeometry x="360" y="160" width="160" height="80" as="geometry" />
        </mxCell>
        <mxCell id="AyU8M4hoDukCYJioR-Rg-36" value="" style="edgeStyle=orthogonalEdgeStyle;rounded=0;orthogonalLoop=1;jettySize=auto;html=1;" parent="1" source="AyU8M4hoDukCYJioR-Rg-1" edge="1">
          <mxGeometry relative="1" as="geometry">
            <mxPoint x="420" y="1000" as="targetPoint" />
          </mxGeometry>
        </mxCell>
        <mxCell id="AyU8M4hoDukCYJioR-Rg-1" value="HUMAN DETECTION USING YOLOv8&lt;br&gt;TensorRT batch Inference" style="rounded=1;whiteSpace=wrap;html=1;absoluteArcSize=1;arcSize=14;strokeWidth=2;" parent="1" vertex="1">
          <mxGeometry x="240" y="820" width="360" height="120" as="geometry" />
        </mxCell>
        <mxCell id="AyU8M4hoDukCYJioR-Rg-21" style="edgeStyle=orthogonalEdgeStyle;rounded=0;orthogonalLoop=1;jettySize=auto;html=1;entryX=0;entryY=0.5;entryDx=0;entryDy=0;" parent="1" source="AyU8M4hoDukCYJioR-Rg-2" target="AyU8M4hoDukCYJioR-Rg-22" edge="1">
          <mxGeometry relative="1" as="geometry">
            <mxPoint x="120" y="670" as="targetPoint" />
            <Array as="points">
              <mxPoint x="120" y="660" />
            </Array>
          </mxGeometry>
        </mxCell>
        <mxCell id="AyU8M4hoDukCYJioR-Rg-2" value="batch frames 0" style="shape=parallelogram;html=1;strokeWidth=2;perimeter=parallelogramPerimeter;whiteSpace=wrap;rounded=1;arcSize=12;size=0.23;" parent="1" vertex="1">
          <mxGeometry x="55" y="440" width="130" height="80" as="geometry" />
        </mxCell>
        <mxCell id="AyU8M4hoDukCYJioR-Rg-23" value="" style="edgeStyle=orthogonalEdgeStyle;rounded=0;orthogonalLoop=1;jettySize=auto;html=1;entryX=0.25;entryY=0;entryDx=0;entryDy=0;" parent="1" source="AyU8M4hoDukCYJioR-Rg-3" target="AyU8M4hoDukCYJioR-Rg-22" edge="1">
          <mxGeometry relative="1" as="geometry" />
        </mxCell>
        <mxCell id="AyU8M4hoDukCYJioR-Rg-3" value="batch frames 1" style="shape=parallelogram;html=1;strokeWidth=2;perimeter=parallelogramPerimeter;whiteSpace=wrap;rounded=1;arcSize=12;size=0.23;" parent="1" vertex="1">
          <mxGeometry x="255" y="440" width="130" height="80" as="geometry" />
        </mxCell>
        <mxCell id="AyU8M4hoDukCYJioR-Rg-24" value="" style="edgeStyle=orthogonalEdgeStyle;rounded=0;orthogonalLoop=1;jettySize=auto;html=1;" parent="1" source="AyU8M4hoDukCYJioR-Rg-4" target="AyU8M4hoDukCYJioR-Rg-22" edge="1">
          <mxGeometry relative="1" as="geometry" />
        </mxCell>
        <mxCell id="AyU8M4hoDukCYJioR-Rg-4" value="batch frames 2" style="shape=parallelogram;html=1;strokeWidth=2;perimeter=parallelogramPerimeter;whiteSpace=wrap;rounded=1;arcSize=12;size=0.23;" parent="1" vertex="1">
          <mxGeometry x="455" y="440" width="130" height="80" as="geometry" />
        </mxCell>
        <mxCell id="AyU8M4hoDukCYJioR-Rg-25" style="edgeStyle=orthogonalEdgeStyle;rounded=0;orthogonalLoop=1;jettySize=auto;html=1;entryX=1;entryY=0.5;entryDx=0;entryDy=0;" parent="1" source="AyU8M4hoDukCYJioR-Rg-5" target="AyU8M4hoDukCYJioR-Rg-22" edge="1">
          <mxGeometry relative="1" as="geometry">
            <Array as="points">
              <mxPoint x="720" y="660" />
            </Array>
          </mxGeometry>
        </mxCell>
        <mxCell id="AyU8M4hoDukCYJioR-Rg-5" value="batch frames n" style="shape=parallelogram;html=1;strokeWidth=2;perimeter=parallelogramPerimeter;whiteSpace=wrap;rounded=1;arcSize=12;size=0.23;" parent="1" vertex="1">
          <mxGeometry x="655" y="440" width="130" height="80" as="geometry" />
        </mxCell>
        <mxCell id="AyU8M4hoDukCYJioR-Rg-17" value="batch frame 1" style="rounded=0;whiteSpace=wrap;html=1;strokeWidth=2;" parent="1" vertex="1">
          <mxGeometry x="350" y="630" width="145" height="30" as="geometry" />
        </mxCell>
        <mxCell id="AyU8M4hoDukCYJioR-Rg-18" value="batch frame 2" style="rounded=0;whiteSpace=wrap;html=1;strokeWidth=2;" parent="1" vertex="1">
          <mxGeometry x="350" y="660" width="145" height="30" as="geometry" />
        </mxCell>
        <mxCell id="AyU8M4hoDukCYJioR-Rg-19" value="batch frame 0" style="rounded=0;whiteSpace=wrap;html=1;strokeWidth=2;" parent="1" vertex="1">
          <mxGeometry x="350" y="600" width="145" height="30" as="geometry" />
        </mxCell>
        <mxCell id="AyU8M4hoDukCYJioR-Rg-20" value="batch frame n" style="rounded=0;whiteSpace=wrap;html=1;strokeWidth=2;" parent="1" vertex="1">
          <mxGeometry x="350" y="690" width="145" height="30" as="geometry" />
        </mxCell>
        <mxCell id="AyU8M4hoDukCYJioR-Rg-26" value="" style="edgeStyle=orthogonalEdgeStyle;rounded=0;orthogonalLoop=1;jettySize=auto;html=1;" parent="1" source="AyU8M4hoDukCYJioR-Rg-22" target="AyU8M4hoDukCYJioR-Rg-1" edge="1">
          <mxGeometry relative="1" as="geometry" />
        </mxCell>
        <mxCell id="AyU8M4hoDukCYJioR-Rg-34" value="BATCH, meta[i]&lt;br&gt;BBOXES, SCORES, LABELS" style="shape=parallelogram;perimeter=parallelogramPerimeter;whiteSpace=wrap;html=1;fixedSize=1;rounded=1;arcSize=14;strokeWidth=2;" parent="1" vertex="1">
          <mxGeometry x="305" y="1040" width="190" height="50" as="geometry" />
        </mxCell>
        <mxCell id="AyU8M4hoDukCYJioR-Rg-55" value="" style="edgeStyle=orthogonalEdgeStyle;rounded=0;orthogonalLoop=1;jettySize=auto;html=1;" parent="1" source="AyU8M4hoDukCYJioR-Rg-37" target="AyU8M4hoDukCYJioR-Rg-54" edge="1">
          <mxGeometry relative="1" as="geometry" />
        </mxCell>
        <mxCell id="AyU8M4hoDukCYJioR-Rg-37" value="Tracking + Counting" style="rounded=1;whiteSpace=wrap;html=1;absoluteArcSize=1;arcSize=14;strokeWidth=2;" parent="1" vertex="1">
          <mxGeometry x="280" y="1560" width="240" height="120" as="geometry" />
        </mxCell>
        <mxCell id="AyU8M4hoDukCYJioR-Rg-54" value="in_count&lt;br&gt;out_count" style="shape=parallelogram;perimeter=parallelogramPerimeter;whiteSpace=wrap;html=1;fixedSize=1;rounded=1;arcSize=14;strokeWidth=2;" parent="1" vertex="1">
          <mxGeometry x="280" y="1750" width="240" height="70" as="geometry" />
        </mxCell>
        <mxCell id="7YYB59KYBVQRV5arXoAF-5" style="edgeStyle=orthogonalEdgeStyle;rounded=0;orthogonalLoop=1;jettySize=auto;html=1;" edge="1" parent="1" source="7YYB59KYBVQRV5arXoAF-1" target="7YYB59KYBVQRV5arXoAF-6">
          <mxGeometry relative="1" as="geometry">
            <mxPoint x="400" y="1440" as="targetPoint" />
          </mxGeometry>
        </mxCell>
        <mxCell id="7YYB59KYBVQRV5arXoAF-1" value="Ouput bin file" style="strokeWidth=2;html=1;shape=mxgraph.flowchart.direct_data;whiteSpace=wrap;" vertex="1" parent="1">
          <mxGeometry x="280" y="1230" width="240" height="120" as="geometry" />
        </mxCell>
        <mxCell id="7YYB59KYBVQRV5arXoAF-2" value="save detection result into file" style="text;html=1;strokeColor=none;fillColor=none;align=center;verticalAlign=middle;whiteSpace=wrap;rounded=0;" vertex="1" parent="1">
          <mxGeometry x="400" y="1170" width="160" height="30" as="geometry" />
        </mxCell>
        <mxCell id="7YYB59KYBVQRV5arXoAF-4" value="load detection result form file" style="text;html=1;strokeColor=none;fillColor=none;align=center;verticalAlign=middle;whiteSpace=wrap;rounded=0;" vertex="1" parent="1">
          <mxGeometry x="400" y="1380" width="160" height="30" as="geometry" />
        </mxCell>
        <mxCell id="7YYB59KYBVQRV5arXoAF-7" value="" style="edgeStyle=orthogonalEdgeStyle;rounded=0;orthogonalLoop=1;jettySize=auto;html=1;" edge="1" parent="1" source="7YYB59KYBVQRV5arXoAF-6" target="AyU8M4hoDukCYJioR-Rg-37">
          <mxGeometry relative="1" as="geometry" />
        </mxCell>
        <mxCell id="7YYB59KYBVQRV5arXoAF-6" value="bboxes, scores, labels, meta[i]" style="shape=parallelogram;html=1;strokeWidth=2;perimeter=parallelogramPerimeter;whiteSpace=wrap;rounded=1;arcSize=12;size=0.23;" vertex="1" parent="1">
          <mxGeometry x="280" y="1440" width="240" height="60" as="geometry" />
        </mxCell>
      </root>
    </mxGraphModel>
  </diagram>
  <diagram id="KceXKBpLwSX9RL8dv_ZC" name="Page-4">
    <mxGraphModel dx="1362" dy="771" grid="1" gridSize="10" guides="1" tooltips="1" connect="1" arrows="1" fold="1" page="1" pageScale="1" pageWidth="850" pageHeight="1100" math="0" shadow="0">
      <root>
        <mxCell id="0" />
        <mxCell id="1" parent="0" />
      </root>
    </mxGraphModel>
  </diagram>
</mxfile>
